<svg width="40" height="40" viewBox="0 0 40 40" fill="none" xmlns="http://www.w3.org/2000/svg">
<path d="M9.42665 34.1317C9.18735 34.3398 8.89365 34.4753 8.58004 34.5223C8.26642 34.5693 7.94591 34.5258 7.65613 34.397C7.36634 34.2682 7.11932 34.0594 6.94405 33.7952C6.76878 33.5309 6.67255 33.2221 6.66665 32.905V29.1667C5.78259 29.1667 4.93474 28.8155 4.30962 28.1904C3.6845 27.5653 3.33331 26.7174 3.33331 25.8334V14.1667C3.33331 13.2826 3.6845 12.4348 4.30962 11.8097C4.93474 11.1845 5.78259 10.8334 6.66665 10.8334H25C25.884 10.8334 26.7319 11.1845 27.357 11.8097C27.9821 12.4348 28.3333 13.2826 28.3333 14.1667V25.8334C28.3333 26.7174 27.9821 27.5653 27.357 28.1904C26.7319 28.8155 25.884 29.1667 25 29.1667H16.6716L9.42665 34.1317ZM30 20.8617C29.9946 21.0667 29.9946 21.2717 30 21.4767V20.8617ZM30 20.8617C30.0078 20.6839 30.01 18.4511 30.0066 14.1634C30.0053 12.8381 29.478 11.5677 28.5404 10.6311C27.6029 9.69445 26.3319 9.16835 25.0066 9.16835H11.6666V7.50002C11.6666 6.61597 12.0178 5.76812 12.643 5.143C13.2681 4.51788 14.1159 4.16669 15 4.16669H33.3333C34.2174 4.16669 35.0652 4.51788 35.6903 5.143C36.3155 5.76812 36.6666 6.61597 36.6666 7.50002V19.1667C36.6666 20.0507 36.3155 20.8986 35.6903 21.5237C35.0652 22.1488 34.2174 22.5 33.3333 22.5V26.2384C33.3274 26.5554 33.2312 26.8642 33.0559 27.1285C32.8806 27.3928 32.6336 27.6016 32.3438 27.7304C32.054 27.8591 31.7335 27.9026 31.4199 27.8556C31.1063 27.8086 30.8126 27.6731 30.5733 27.465L30 27.0717V20.8617Z" fill="black"/>
</svg>
