<svg width="24" height="25" viewBox="0 0 24 25" fill="none" xmlns="http://www.w3.org/2000/svg">
<rect width="24" height="24" transform="translate(0 0.5)" fill="white"/>
<path fill-rule="evenodd" clip-rule="evenodd" d="M2 6.1239C2 5.32825 2.31607 4.56519 2.87868 4.00258C3.44129 3.43997 4.20435 3.1239 5 3.1239H19C19.7956 3.1239 20.5587 3.43997 21.1213 4.00258C21.6839 4.56519 22 5.32825 22 6.1239V16.1239C22 16.9196 21.6839 17.6826 21.1213 18.2452C20.5587 18.8078 19.7956 19.1239 19 19.1239H11.333L8 21.6239C7.176 22.2419 6 21.6539 6 20.6239V19.1239H5C4.20435 19.1239 3.44129 18.8078 2.87868 18.2452C2.31607 17.6826 2 16.9196 2 16.1239V6.1239Z" fill="black"/>
</svg>
