<svg width="40" height="40" viewBox="0 0 40 40" fill="none" xmlns="http://www.w3.org/2000/svg">
<path d="M23.3333 30C23.3333 30.8841 22.9821 31.7319 22.357 32.357C21.7319 32.9822 20.8841 33.3334 20 33.3334C19.116 33.3334 18.2681 32.9822 17.643 32.357C17.0179 31.7319 16.6667 30.8841 16.6667 30C16.6667 29.116 17.0179 28.2681 17.643 27.643C18.2681 27.0179 19.116 26.6667 20 26.6667C20.8841 26.6667 21.7319 27.0179 22.357 27.643C22.9821 28.2681 23.3333 29.116 23.3333 30ZM23.3333 20C23.3333 20.8841 22.9821 21.7319 22.357 22.357C21.7319 22.9822 20.8841 23.3334 20 23.3334C19.116 23.3334 18.2681 22.9822 17.643 22.357C17.0179 21.7319 16.6667 20.8841 16.6667 20C16.6667 19.116 17.0179 18.2681 17.643 17.643C18.2681 17.0179 19.116 16.6667 20 16.6667C20.8841 16.6667 21.7319 17.0179 22.357 17.643C22.9821 18.2681 23.3333 19.116 23.3333 20ZM20 13.3334C20.8841 13.3334 21.7319 12.9822 22.357 12.357C22.9821 11.7319 23.3333 10.8841 23.3333 10C23.3333 9.11597 22.9821 8.26812 22.357 7.643C21.7319 7.01788 20.8841 6.66669 20 6.66669C19.116 6.66669 18.2681 7.01788 17.643 7.643C17.0179 8.26812 16.6667 9.11597 16.6667 10C16.6667 10.8841 17.0179 11.7319 17.643 12.357C18.2681 12.9822 19.116 13.3334 20 13.3334Z" fill="black"/>
</svg>
