<svg width="24" height="24" viewBox="0 0 24 24" fill="none" xmlns="http://www.w3.org/2000/svg">
<path d="M3.74993 6.8295C3.55334 6.8295 3.35868 6.86822 3.17705 6.94345C2.99543 7.01868 2.8304 7.12895 2.69139 7.26796C2.55238 7.40697 2.44211 7.572 2.36688 7.75362C2.29165 7.93525 2.25293 8.12991 2.25293 8.3265C2.25293 8.52309 2.29165 8.71775 2.36688 8.89938C2.44211 9.081 2.55238 9.24603 2.69139 9.38504C2.8304 9.52405 2.99543 9.63432 3.17705 9.70955C3.35868 9.78478 3.55334 9.8235 3.74993 9.8235C4.14696 9.8235 4.52773 9.66578 4.80847 9.38504C5.08921 9.1043 5.24693 8.72353 5.24693 8.3265C5.24693 7.92947 5.08921 7.5487 4.80847 7.26796C4.52773 6.98722 4.14696 6.8295 3.74993 6.8295ZM3.74993 5.3295C3.58493 5.3305 3.42243 5.3435 3.26243 5.3685C3.53937 4.66963 4.01996 4.07013 4.64185 3.64779C5.26373 3.22544 5.99819 2.99975 6.74993 3H17.2499C18.2445 3 19.1983 3.39509 19.9016 4.09835C20.6048 4.80161 20.9999 5.75544 20.9999 6.75V17.25C20.9999 18.2446 20.6048 19.1984 19.9016 19.9016C19.1983 20.6049 18.2445 21 17.2499 21H6.74993C5.75537 21 4.80154 20.6049 4.09828 19.9016C3.39502 19.1984 2.99993 18.2446 2.99993 17.25V11.2305C3.44307 11.3438 3.90623 11.3544 4.35409 11.2615C4.80194 11.1686 5.22265 10.9745 5.58411 10.6943C5.94557 10.414 6.23822 10.0548 6.43975 9.64422C6.64127 9.23361 6.74634 8.7824 6.74693 8.325C6.74574 7.53065 6.42955 6.7692 5.86772 6.20765C5.30589 5.6461 4.54428 5.33029 3.74993 5.3295ZM8.24993 9.75C8.24993 9.94891 8.32895 10.1397 8.4696 10.2803C8.61025 10.421 8.80102 10.5 8.99993 10.5H14.9999C15.1988 10.5 15.3896 10.421 15.5303 10.2803C15.6709 10.1397 15.7499 9.94891 15.7499 9.75C15.7499 9.55109 15.6709 9.36032 15.5303 9.21967C15.3896 9.07902 15.1988 9 14.9999 9H8.99993C8.80102 9 8.61025 9.07902 8.4696 9.21967C8.32895 9.36032 8.24993 9.55109 8.24993 9.75ZM8.24993 14.25C8.24993 14.4489 8.32895 14.6397 8.4696 14.7803C8.61025 14.921 8.80102 15 8.99993 15H12.9209C13.1198 15 13.3106 14.921 13.4513 14.7803C13.5919 14.6397 13.6709 14.4489 13.6709 14.25C13.6709 14.0511 13.5919 13.8603 13.4513 13.7197C13.3106 13.579 13.1198 13.5 12.9209 13.5H8.99993C8.80102 13.5 8.61025 13.579 8.4696 13.7197C8.32895 13.8603 8.24993 14.0511 8.24993 14.25Z" fill="#687BEC"/>
</svg>
