<svg width="24" height="24" viewBox="0 0 24 24" fill="none" xmlns="http://www.w3.org/2000/svg">
<g id="mention">
<g id="Group">
<path id="Vector" d="M12 16C14.2091 16 16 14.2091 16 12C16 9.79086 14.2091 8 12 8C9.79086 8 8 9.79086 8 12C8 14.2091 9.79086 16 12 16Z" stroke="#6B8AFD" stroke-width="2"/>
<path id="Vector_2" d="M22 12C22 6.477 17.523 2 12 2C6.477 2 2 6.477 2 12C2 17.523 6.477 22 12 22C14.252 22 16.33 21.256 18.001 20" stroke="#6B8AFD" stroke-width="2" stroke-linecap="round" stroke-linejoin="round"/>
<path id="Vector_3" d="M16 8V12C16 13 16.6 15 19 15C21.4 15 22 13 22 12" stroke="#6B8AFD" stroke-width="2" stroke-linecap="round"/>
</g>
</g>
</svg>
